<mxfile host="app.diagrams.net" modified="2024-05-04T21:57:11.439Z" agent="Mozilla/5.0 (X11; Ubuntu; Linux x86_64; rv:124.0) Gecko/20100101 Firefox/124.0" etag="vGgONkrcYCm1u3gpzVes" version="24.3.1" type="github">
  <diagram name="Page-1" id="ylOY16KtgZUkuVxzU0hM">
    <mxGraphModel dx="2030" dy="822" grid="1" gridSize="10" guides="1" tooltips="1" connect="1" arrows="1" fold="1" page="1" pageScale="1" pageWidth="850" pageHeight="1100" math="0" shadow="0">
      <root>
        <mxCell id="0" />
        <mxCell id="1" parent="0" />
      </root>
    </mxGraphModel>
  </diagram>
</mxfile>
